# xmcd
#
# Track frame offsets:
#	150
#	15808
#	37228
#	52419
#	72481
#	85725
#	105317
#	123524
#	143651
#	160161
#	175978
#	189731
#
# Disc length: 2750 seconds
#
# Revision: 2
# Processed by: cddbd v1.5.2PL0 Copyright (c) Steve Scherf et al.
# Submitted via: audiograbber 1.83.01
#
DISCID=a30abc0c
DTITLE=The Shrinks - Further Along The Road The Shrinks
DYEAR=2006
DGENRE=Country
TTITLE0=Bristol, Tennessee
TTITLE1=Further Along The Road
TTITLE2=Soul Ironing
TTITLE3=The Devil´s Breath
TTITLE4=Easy In The World
TTITLE5=Always The Way
TTITLE6=Be Strong
TTITLE7=Nobody Listening
TTITLE8=Yeah, No
TTITLE9=Best Destiny
TTITLE10=The Picture
TTITLE11=The Drikning Song
EXTD=
EXTT0=
EXTT1=
EXTT2=
EXTT3=
EXTT4=
EXTT5=
EXTT6=
EXTT7=
EXTT8=
EXTT9=
EXTT10=
EXTT11=
PLAYORDER=
